<mxfile host="65bd71144e" pages="2">
    <diagram name="Page-1" id="k1KVqjGjMDKWa9_7C7i4">
        <mxGraphModel dx="3033" dy="3030" grid="1" gridSize="10" guides="1" tooltips="1" connect="1" arrows="1" fold="1" page="1" pageScale="1" pageWidth="850" pageHeight="1100" math="0" shadow="0">
            <root>
                <mxCell id="0"/>
                <mxCell id="1" parent="0"/>
                <mxCell id="zVIB7hnpfK3RYBGvCR37-93" style="edgeStyle=orthogonalEdgeStyle;rounded=0;orthogonalLoop=1;jettySize=auto;html=1;entryX=0;entryY=0.5;entryDx=0;entryDy=0;" parent="1" source="zVIB7hnpfK3RYBGvCR37-77" target="zVIB7hnpfK3RYBGvCR37-92" edge="1">
                    <mxGeometry relative="1" as="geometry">
                        <Array as="points">
                            <mxPoint x="-710" y="-235"/>
                            <mxPoint x="-710" y="645"/>
                        </Array>
                    </mxGeometry>
                </mxCell>
                <mxCell id="zVIB7hnpfK3RYBGvCR37-94" value="&lt;font style=&quot;font-size: 14px; line-height: 150%;&quot;&gt;Request&lt;/font&gt;" style="edgeLabel;html=1;align=center;verticalAlign=middle;resizable=0;points=[];" parent="zVIB7hnpfK3RYBGvCR37-93" vertex="1" connectable="0">
                    <mxGeometry x="-0.0465" y="2" relative="1" as="geometry">
                        <mxPoint as="offset"/>
                    </mxGeometry>
                </mxCell>
                <mxCell id="zVIB7hnpfK3RYBGvCR37-77" value="" style="rounded=1;whiteSpace=wrap;html=1;" parent="1" vertex="1">
                    <mxGeometry x="-530" y="-310" width="370" height="150" as="geometry"/>
                </mxCell>
                <mxCell id="zVIB7hnpfK3RYBGvCR37-99" style="edgeStyle=orthogonalEdgeStyle;rounded=0;orthogonalLoop=1;jettySize=auto;html=1;exitX=1;exitY=0.25;exitDx=0;exitDy=0;entryX=0;entryY=0.5;entryDx=0;entryDy=0;" parent="1" source="zVIB7hnpfK3RYBGvCR37-70" target="zVIB7hnpfK3RYBGvCR37-98" edge="1">
                    <mxGeometry relative="1" as="geometry">
                        <Array as="points">
                            <mxPoint x="-170" y="369"/>
                        </Array>
                    </mxGeometry>
                </mxCell>
                <mxCell id="zVIB7hnpfK3RYBGvCR37-100" value="&lt;font style=&quot;font-size: 14px;&quot;&gt;Session Exist&lt;/font&gt;" style="edgeLabel;html=1;align=center;verticalAlign=middle;resizable=0;points=[];" parent="zVIB7hnpfK3RYBGvCR37-99" vertex="1" connectable="0">
                    <mxGeometry x="0.0433" relative="1" as="geometry">
                        <mxPoint as="offset"/>
                    </mxGeometry>
                </mxCell>
                <mxCell id="4" style="edgeStyle=orthogonalEdgeStyle;html=1;" edge="1" parent="1" source="zVIB7hnpfK3RYBGvCR37-70">
                    <mxGeometry relative="1" as="geometry">
                        <mxPoint x="-650" y="270" as="targetPoint"/>
                    </mxGeometry>
                </mxCell>
                <mxCell id="5" value="&lt;span style=&quot;color: rgb(63, 63, 63); font-size: 14px;&quot;&gt;Session Not Exist&lt;/span&gt;" style="edgeLabel;html=1;align=center;verticalAlign=middle;resizable=0;points=[];" vertex="1" connectable="0" parent="4">
                    <mxGeometry x="-0.3759" y="3" relative="1" as="geometry">
                        <mxPoint x="14" y="-3" as="offset"/>
                    </mxGeometry>
                </mxCell>
                <mxCell id="zVIB7hnpfK3RYBGvCR37-70" value="" style="rounded=1;whiteSpace=wrap;html=1;" parent="1" vertex="1">
                    <mxGeometry x="-520" y="310" width="350" height="199.4" as="geometry"/>
                </mxCell>
                <mxCell id="zVIB7hnpfK3RYBGvCR37-86" style="edgeStyle=orthogonalEdgeStyle;rounded=0;orthogonalLoop=1;jettySize=auto;html=1;exitX=0;exitY=0.25;exitDx=0;exitDy=0;entryX=1;entryY=0.25;entryDx=0;entryDy=0;" parent="1" source="zVIB7hnpfK3RYBGvCR37-57" target="zVIB7hnpfK3RYBGvCR37-79" edge="1">
                    <mxGeometry relative="1" as="geometry">
                        <Array as="points">
                            <mxPoint x="50" y="40"/>
                            <mxPoint x="-170" y="40"/>
                            <mxPoint x="-170" y="48"/>
                        </Array>
                    </mxGeometry>
                </mxCell>
                <mxCell id="zVIB7hnpfK3RYBGvCR37-87" value="&lt;font style=&quot;line-height: 190%;&quot;&gt;Response Data&lt;/font&gt;" style="edgeLabel;html=1;align=center;verticalAlign=middle;resizable=0;points=[];fontSize=14;" parent="zVIB7hnpfK3RYBGvCR37-86" vertex="1" connectable="0">
                    <mxGeometry x="0.0115" y="-1" relative="1" as="geometry">
                        <mxPoint as="offset"/>
                    </mxGeometry>
                </mxCell>
                <mxCell id="zVIB7hnpfK3RYBGvCR37-104" style="edgeStyle=orthogonalEdgeStyle;rounded=0;orthogonalLoop=1;jettySize=auto;html=1;entryX=1;entryY=0.5;entryDx=0;entryDy=0;" parent="1" source="zVIB7hnpfK3RYBGvCR37-57" target="zVIB7hnpfK3RYBGvCR37-92" edge="1">
                    <mxGeometry relative="1" as="geometry">
                        <Array as="points">
                            <mxPoint x="360" y="645"/>
                        </Array>
                    </mxGeometry>
                </mxCell>
                <mxCell id="zVIB7hnpfK3RYBGvCR37-105" value="&lt;font style=&quot;font-size: 14px;&quot;&gt;Response Data&lt;/font&gt;" style="edgeLabel;html=1;align=center;verticalAlign=middle;resizable=0;points=[];" parent="zVIB7hnpfK3RYBGvCR37-104" vertex="1" connectable="0">
                    <mxGeometry x="0.433" y="-1" relative="1" as="geometry">
                        <mxPoint as="offset"/>
                    </mxGeometry>
                </mxCell>
                <mxCell id="zVIB7hnpfK3RYBGvCR37-57" value="" style="rounded=1;whiteSpace=wrap;html=1;" parent="1" vertex="1">
                    <mxGeometry x="50" y="-40" width="620" height="251" as="geometry"/>
                </mxCell>
                <mxCell id="zVIB7hnpfK3RYBGvCR37-1" value="UserSchema" style="shape=table;startSize=30;container=1;collapsible=0;childLayout=tableLayout;fixedRows=1;rowLines=0;fontStyle=0;strokeColor=default;fontSize=16;" parent="1" vertex="1">
                    <mxGeometry x="120" y="31" width="180" height="140" as="geometry"/>
                </mxCell>
                <mxCell id="zVIB7hnpfK3RYBGvCR37-2" value="" style="shape=tableRow;horizontal=0;startSize=0;swimlaneHead=0;swimlaneBody=0;top=0;left=0;bottom=0;right=0;collapsible=0;dropTarget=0;fillColor=none;points=[[0,0.5],[1,0.5]];portConstraint=eastwest;strokeColor=inherit;fontSize=16;" parent="zVIB7hnpfK3RYBGvCR37-1" vertex="1">
                    <mxGeometry y="30" width="180" height="20" as="geometry"/>
                </mxCell>
                <mxCell id="zVIB7hnpfK3RYBGvCR37-3" value="1" style="shape=partialRectangle;html=1;whiteSpace=wrap;connectable=0;fillColor=none;top=0;left=0;bottom=0;right=0;overflow=hidden;pointerEvents=1;strokeColor=inherit;fontSize=16;" parent="zVIB7hnpfK3RYBGvCR37-2" vertex="1">
                    <mxGeometry width="40" height="20" as="geometry">
                        <mxRectangle width="40" height="20" as="alternateBounds"/>
                    </mxGeometry>
                </mxCell>
                <mxCell id="zVIB7hnpfK3RYBGvCR37-4" value="username" style="shape=partialRectangle;html=1;whiteSpace=wrap;connectable=0;fillColor=none;top=0;left=0;bottom=0;right=0;align=left;spacingLeft=6;overflow=hidden;strokeColor=inherit;fontSize=16;" parent="zVIB7hnpfK3RYBGvCR37-2" vertex="1">
                    <mxGeometry x="40" width="140" height="20" as="geometry">
                        <mxRectangle width="140" height="20" as="alternateBounds"/>
                    </mxGeometry>
                </mxCell>
                <mxCell id="zVIB7hnpfK3RYBGvCR37-5" value="" style="shape=tableRow;horizontal=0;startSize=0;swimlaneHead=0;swimlaneBody=0;top=0;left=0;bottom=0;right=0;collapsible=0;dropTarget=0;fillColor=none;points=[[0,0.5],[1,0.5]];portConstraint=eastwest;strokeColor=inherit;fontSize=16;" parent="zVIB7hnpfK3RYBGvCR37-1" vertex="1">
                    <mxGeometry y="50" width="180" height="30" as="geometry"/>
                </mxCell>
                <mxCell id="zVIB7hnpfK3RYBGvCR37-6" value="2" style="shape=partialRectangle;html=1;whiteSpace=wrap;connectable=0;fillColor=none;top=0;left=0;bottom=0;right=0;overflow=hidden;strokeColor=inherit;fontSize=16;" parent="zVIB7hnpfK3RYBGvCR37-5" vertex="1">
                    <mxGeometry width="40" height="30" as="geometry">
                        <mxRectangle width="40" height="30" as="alternateBounds"/>
                    </mxGeometry>
                </mxCell>
                <mxCell id="zVIB7hnpfK3RYBGvCR37-7" value="email" style="shape=partialRectangle;html=1;whiteSpace=wrap;connectable=0;fillColor=none;top=0;left=0;bottom=0;right=0;align=left;spacingLeft=6;overflow=hidden;strokeColor=inherit;fontSize=16;" parent="zVIB7hnpfK3RYBGvCR37-5" vertex="1">
                    <mxGeometry x="40" width="140" height="30" as="geometry">
                        <mxRectangle width="140" height="30" as="alternateBounds"/>
                    </mxGeometry>
                </mxCell>
                <mxCell id="zVIB7hnpfK3RYBGvCR37-8" value="" style="shape=tableRow;horizontal=0;startSize=0;swimlaneHead=0;swimlaneBody=0;top=0;left=0;bottom=0;right=0;collapsible=0;dropTarget=0;fillColor=none;points=[[0,0.5],[1,0.5]];portConstraint=eastwest;strokeColor=inherit;fontSize=16;" parent="zVIB7hnpfK3RYBGvCR37-1" vertex="1">
                    <mxGeometry y="80" width="180" height="30" as="geometry"/>
                </mxCell>
                <mxCell id="zVIB7hnpfK3RYBGvCR37-9" value="3" style="shape=partialRectangle;html=1;whiteSpace=wrap;connectable=0;fillColor=none;top=0;left=0;bottom=0;right=0;overflow=hidden;strokeColor=inherit;fontSize=16;" parent="zVIB7hnpfK3RYBGvCR37-8" vertex="1">
                    <mxGeometry width="40" height="30" as="geometry">
                        <mxRectangle width="40" height="30" as="alternateBounds"/>
                    </mxGeometry>
                </mxCell>
                <mxCell id="zVIB7hnpfK3RYBGvCR37-10" value="password" style="shape=partialRectangle;html=1;whiteSpace=wrap;connectable=0;fillColor=none;top=0;left=0;bottom=0;right=0;align=left;spacingLeft=6;overflow=hidden;strokeColor=inherit;fontSize=16;" parent="zVIB7hnpfK3RYBGvCR37-8" vertex="1">
                    <mxGeometry x="40" width="140" height="30" as="geometry">
                        <mxRectangle width="140" height="30" as="alternateBounds"/>
                    </mxGeometry>
                </mxCell>
                <mxCell id="zVIB7hnpfK3RYBGvCR37-52" value="" style="shape=tableRow;horizontal=0;startSize=0;swimlaneHead=0;swimlaneBody=0;top=0;left=0;bottom=0;right=0;collapsible=0;dropTarget=0;fillColor=none;points=[[0,0.5],[1,0.5]];portConstraint=eastwest;strokeColor=inherit;fontSize=16;" parent="zVIB7hnpfK3RYBGvCR37-1" vertex="1">
                    <mxGeometry y="110" width="180" height="30" as="geometry"/>
                </mxCell>
                <mxCell id="zVIB7hnpfK3RYBGvCR37-53" value="4" style="shape=partialRectangle;html=1;whiteSpace=wrap;connectable=0;fillColor=none;top=0;left=0;bottom=0;right=0;overflow=hidden;strokeColor=inherit;fontSize=16;" parent="zVIB7hnpfK3RYBGvCR37-52" vertex="1">
                    <mxGeometry width="40" height="30" as="geometry">
                        <mxRectangle width="40" height="30" as="alternateBounds"/>
                    </mxGeometry>
                </mxCell>
                <mxCell id="zVIB7hnpfK3RYBGvCR37-54" value="_id" style="shape=partialRectangle;html=1;whiteSpace=wrap;connectable=0;fillColor=none;top=0;left=0;bottom=0;right=0;align=left;spacingLeft=6;overflow=hidden;strokeColor=inherit;fontSize=16;" parent="zVIB7hnpfK3RYBGvCR37-52" vertex="1">
                    <mxGeometry x="40" width="140" height="30" as="geometry">
                        <mxRectangle width="140" height="30" as="alternateBounds"/>
                    </mxGeometry>
                </mxCell>
                <mxCell id="zVIB7hnpfK3RYBGvCR37-11" value="TaskSchema" style="shape=table;startSize=30;container=1;collapsible=0;childLayout=tableLayout;fixedRows=1;rowLines=0;fontStyle=0;strokeColor=default;fontSize=16;" parent="1" vertex="1">
                    <mxGeometry x="475" y="31" width="180" height="151" as="geometry"/>
                </mxCell>
                <mxCell id="zVIB7hnpfK3RYBGvCR37-12" value="" style="shape=tableRow;horizontal=0;startSize=0;swimlaneHead=0;swimlaneBody=0;top=0;left=0;bottom=0;right=0;collapsible=0;dropTarget=0;fillColor=none;points=[[0,0.5],[1,0.5]];portConstraint=eastwest;strokeColor=inherit;fontSize=16;" parent="zVIB7hnpfK3RYBGvCR37-11" vertex="1">
                    <mxGeometry y="30" width="180" height="30" as="geometry"/>
                </mxCell>
                <mxCell id="zVIB7hnpfK3RYBGvCR37-13" value="1" style="shape=partialRectangle;html=1;whiteSpace=wrap;connectable=0;fillColor=none;top=0;left=0;bottom=0;right=0;overflow=hidden;pointerEvents=1;strokeColor=inherit;fontSize=16;" parent="zVIB7hnpfK3RYBGvCR37-12" vertex="1">
                    <mxGeometry width="40" height="30" as="geometry">
                        <mxRectangle width="40" height="30" as="alternateBounds"/>
                    </mxGeometry>
                </mxCell>
                <mxCell id="zVIB7hnpfK3RYBGvCR37-14" value="title" style="shape=partialRectangle;html=1;whiteSpace=wrap;connectable=0;fillColor=none;top=0;left=0;bottom=0;right=0;align=left;spacingLeft=6;overflow=hidden;strokeColor=inherit;fontSize=16;" parent="zVIB7hnpfK3RYBGvCR37-12" vertex="1">
                    <mxGeometry x="40" width="140" height="30" as="geometry">
                        <mxRectangle width="140" height="30" as="alternateBounds"/>
                    </mxGeometry>
                </mxCell>
                <mxCell id="zVIB7hnpfK3RYBGvCR37-15" value="" style="shape=tableRow;horizontal=0;startSize=0;swimlaneHead=0;swimlaneBody=0;top=0;left=0;bottom=0;right=0;collapsible=0;dropTarget=0;fillColor=none;points=[[0,0.5],[1,0.5]];portConstraint=eastwest;strokeColor=inherit;fontSize=16;" parent="zVIB7hnpfK3RYBGvCR37-11" vertex="1">
                    <mxGeometry y="60" width="180" height="30" as="geometry"/>
                </mxCell>
                <mxCell id="zVIB7hnpfK3RYBGvCR37-16" value="2" style="shape=partialRectangle;html=1;whiteSpace=wrap;connectable=0;fillColor=none;top=0;left=0;bottom=0;right=0;overflow=hidden;strokeColor=inherit;fontSize=16;" parent="zVIB7hnpfK3RYBGvCR37-15" vertex="1">
                    <mxGeometry width="40" height="30" as="geometry">
                        <mxRectangle width="40" height="30" as="alternateBounds"/>
                    </mxGeometry>
                </mxCell>
                <mxCell id="zVIB7hnpfK3RYBGvCR37-17" value="description" style="shape=partialRectangle;html=1;whiteSpace=wrap;connectable=0;fillColor=none;top=0;left=0;bottom=0;right=0;align=left;spacingLeft=6;overflow=hidden;strokeColor=inherit;fontSize=16;" parent="zVIB7hnpfK3RYBGvCR37-15" vertex="1">
                    <mxGeometry x="40" width="140" height="30" as="geometry">
                        <mxRectangle width="140" height="30" as="alternateBounds"/>
                    </mxGeometry>
                </mxCell>
                <mxCell id="zVIB7hnpfK3RYBGvCR37-18" value="" style="shape=tableRow;horizontal=0;startSize=0;swimlaneHead=0;swimlaneBody=0;top=0;left=0;bottom=0;right=0;collapsible=0;dropTarget=0;fillColor=none;points=[[0,0.5],[1,0.5]];portConstraint=eastwest;strokeColor=inherit;fontSize=16;" parent="zVIB7hnpfK3RYBGvCR37-11" vertex="1">
                    <mxGeometry y="90" width="180" height="30" as="geometry"/>
                </mxCell>
                <mxCell id="zVIB7hnpfK3RYBGvCR37-19" value="3" style="shape=partialRectangle;html=1;whiteSpace=wrap;connectable=0;fillColor=none;top=0;left=0;bottom=0;right=0;overflow=hidden;strokeColor=inherit;fontSize=16;" parent="zVIB7hnpfK3RYBGvCR37-18" vertex="1">
                    <mxGeometry width="40" height="30" as="geometry">
                        <mxRectangle width="40" height="30" as="alternateBounds"/>
                    </mxGeometry>
                </mxCell>
                <mxCell id="zVIB7hnpfK3RYBGvCR37-20" value="status" style="shape=partialRectangle;html=1;whiteSpace=wrap;connectable=0;fillColor=none;top=0;left=0;bottom=0;right=0;align=left;spacingLeft=6;overflow=hidden;strokeColor=inherit;fontSize=16;" parent="zVIB7hnpfK3RYBGvCR37-18" vertex="1">
                    <mxGeometry x="40" width="140" height="30" as="geometry">
                        <mxRectangle width="140" height="30" as="alternateBounds"/>
                    </mxGeometry>
                </mxCell>
                <mxCell id="zVIB7hnpfK3RYBGvCR37-37" value="" style="shape=tableRow;horizontal=0;startSize=0;swimlaneHead=0;swimlaneBody=0;top=0;left=0;bottom=0;right=0;collapsible=0;dropTarget=0;fillColor=none;points=[[0,0.5],[1,0.5]];portConstraint=eastwest;strokeColor=inherit;fontSize=16;" parent="zVIB7hnpfK3RYBGvCR37-11" vertex="1">
                    <mxGeometry y="120" width="180" height="30" as="geometry"/>
                </mxCell>
                <mxCell id="zVIB7hnpfK3RYBGvCR37-38" value="4" style="shape=partialRectangle;html=1;whiteSpace=wrap;connectable=0;fillColor=none;top=0;left=0;bottom=0;right=0;overflow=hidden;strokeColor=inherit;fontSize=16;" parent="zVIB7hnpfK3RYBGvCR37-37" vertex="1">
                    <mxGeometry width="40" height="30" as="geometry">
                        <mxRectangle width="40" height="30" as="alternateBounds"/>
                    </mxGeometry>
                </mxCell>
                <mxCell id="zVIB7hnpfK3RYBGvCR37-39" value="user" style="shape=partialRectangle;html=1;whiteSpace=wrap;connectable=0;fillColor=none;top=0;left=0;bottom=0;right=0;align=left;spacingLeft=6;overflow=hidden;strokeColor=inherit;fontSize=16;" parent="zVIB7hnpfK3RYBGvCR37-37" vertex="1">
                    <mxGeometry x="40" width="140" height="30" as="geometry">
                        <mxRectangle width="140" height="30" as="alternateBounds"/>
                    </mxGeometry>
                </mxCell>
                <mxCell id="zVIB7hnpfK3RYBGvCR37-43" value="" style="image;sketch=0;aspect=fixed;html=1;points=[];align=center;fontSize=12;image=img/lib/mscae/Cache_Redis_Product.svg;" parent="1" vertex="1">
                    <mxGeometry x="-500" y="332.4" width="50" height="42" as="geometry"/>
                </mxCell>
                <mxCell id="zVIB7hnpfK3RYBGvCR37-44" value="" style="dashed=0;outlineConnect=0;html=1;align=center;labelPosition=center;verticalLabelPosition=bottom;verticalAlign=top;shape=mxgraph.weblogos.mongodb" parent="1" vertex="1">
                    <mxGeometry x="70" y="-29.399999999999977" width="41.2" height="86.2" as="geometry"/>
                </mxCell>
                <mxCell id="zVIB7hnpfK3RYBGvCR37-45" value="" style="points=[];aspect=fixed;html=1;align=center;shadow=0;dashed=0;fillColor=#FF6A00;strokeColor=none;shape=mxgraph.alibaba_cloud.nodejs_performance_platform;" parent="1" vertex="1">
                    <mxGeometry x="-510" y="-292" width="42" height="47.400000000000006" as="geometry"/>
                </mxCell>
                <mxCell id="zVIB7hnpfK3RYBGvCR37-55" style="edgeStyle=orthogonalEdgeStyle;rounded=0;orthogonalLoop=1;jettySize=auto;html=1;entryX=0.992;entryY=0.114;entryDx=0;entryDy=0;entryPerimeter=0;" parent="1" source="zVIB7hnpfK3RYBGvCR37-37" target="zVIB7hnpfK3RYBGvCR37-1" edge="1">
                    <mxGeometry relative="1" as="geometry"/>
                </mxCell>
                <mxCell id="zVIB7hnpfK3RYBGvCR37-69" value="MONGO DB DATA SCHEMA" style="text;html=1;align=center;verticalAlign=middle;whiteSpace=wrap;rounded=0;fontSize=20;" parent="1" vertex="1">
                    <mxGeometry x="120" y="-20" width="520" height="30" as="geometry"/>
                </mxCell>
                <mxCell id="zVIB7hnpfK3RYBGvCR37-71" value="SESSION CACHING" style="text;html=1;align=center;verticalAlign=middle;whiteSpace=wrap;rounded=0;fontSize=20;" parent="1" vertex="1">
                    <mxGeometry x="-440" y="331.4" width="230" height="30" as="geometry"/>
                </mxCell>
                <mxCell id="zVIB7hnpfK3RYBGvCR37-72" value="&lt;ul style=&quot;line-height: 200%;&quot;&gt;&lt;li&gt;Validation session&lt;/li&gt;&lt;li&gt;Cache token&lt;/li&gt;&lt;li&gt;Session User Data&lt;/li&gt;&lt;li&gt;Global Authentification&lt;/li&gt;&lt;/ul&gt;" style="text;strokeColor=none;fillColor=none;html=1;whiteSpace=wrap;verticalAlign=middle;overflow=hidden;fontSize=14;" parent="1" vertex="1">
                    <mxGeometry x="-500" y="366.9" width="300" height="129.1" as="geometry"/>
                </mxCell>
                <mxCell id="zVIB7hnpfK3RYBGvCR37-75" value="APPLICATION" style="text;html=1;align=center;verticalAlign=middle;whiteSpace=wrap;rounded=0;fontSize=20;" parent="1" vertex="1">
                    <mxGeometry x="-450" y="-283.3" width="230" height="30" as="geometry"/>
                </mxCell>
                <mxCell id="zVIB7hnpfK3RYBGvCR37-78" value="&lt;ul style=&quot;line-height: 200%;&quot;&gt;&lt;li&gt;Express.js Application&lt;/li&gt;&lt;li&gt;Fully type save&lt;/li&gt;&lt;/ul&gt;" style="text;strokeColor=none;fillColor=none;html=1;whiteSpace=wrap;verticalAlign=middle;overflow=hidden;fontSize=14;" parent="1" vertex="1">
                    <mxGeometry x="-495" y="-251" width="300" height="80" as="geometry"/>
                </mxCell>
                <mxCell id="zVIB7hnpfK3RYBGvCR37-90" style="edgeStyle=orthogonalEdgeStyle;rounded=0;orthogonalLoop=1;jettySize=auto;html=1;" parent="1" source="zVIB7hnpfK3RYBGvCR37-79" target="zVIB7hnpfK3RYBGvCR37-70" edge="1">
                    <mxGeometry relative="1" as="geometry"/>
                </mxCell>
                <mxCell id="zVIB7hnpfK3RYBGvCR37-91" value="&lt;font style=&quot;font-size: 14px; line-height: 150%;&quot;&gt;Login/Logout Success&lt;/font&gt;" style="edgeLabel;html=1;align=center;verticalAlign=middle;resizable=0;points=[];" parent="zVIB7hnpfK3RYBGvCR37-90" vertex="1" connectable="0">
                    <mxGeometry x="-0.0215" y="3" relative="1" as="geometry">
                        <mxPoint as="offset"/>
                    </mxGeometry>
                </mxCell>
                <mxCell id="zVIB7hnpfK3RYBGvCR37-79" value="&lt;div style=&quot;line-height: 170%;&quot;&gt;&lt;font style=&quot;line-height: 170%; font-size: 16px;&quot;&gt;AUTH API&lt;/font&gt;&lt;div&gt;&lt;ul&gt;&lt;li&gt;&lt;font style=&quot;line-height: 170%; font-size: 16px;&quot;&gt;&#39;/auth/register&#39;&lt;/font&gt;&lt;/li&gt;&lt;li&gt;&lt;font style=&quot;line-height: 170%; font-size: 16px;&quot;&gt;&#39;/auth/login&#39;&lt;/font&gt;&lt;/li&gt;&lt;li&gt;&lt;font style=&quot;line-height: 170%; font-size: 16px;&quot;&gt;&#39;/auth/logout&#39;&lt;/font&gt;&lt;/li&gt;&lt;/ul&gt;&lt;/div&gt;&lt;/div&gt;" style="rounded=1;whiteSpace=wrap;html=1;align=left;spacingLeft=15;spacingRight=15;" parent="1" vertex="1">
                    <mxGeometry x="-480" y="10" width="270" height="150" as="geometry"/>
                </mxCell>
                <mxCell id="zVIB7hnpfK3RYBGvCR37-80" style="edgeStyle=orthogonalEdgeStyle;rounded=0;orthogonalLoop=1;jettySize=auto;html=1;exitX=0.25;exitY=1;exitDx=0;exitDy=0;entryX=0.161;entryY=-0.002;entryDx=0;entryDy=0;entryPerimeter=0;" parent="1" source="zVIB7hnpfK3RYBGvCR37-77" target="zVIB7hnpfK3RYBGvCR37-79" edge="1">
                    <mxGeometry relative="1" as="geometry"/>
                </mxCell>
                <mxCell id="zVIB7hnpfK3RYBGvCR37-81" value="&lt;font style=&quot;line-height: 170%;&quot;&gt;Request&lt;/font&gt;" style="edgeLabel;html=1;align=center;verticalAlign=middle;resizable=0;points=[];fontSize=14;" parent="zVIB7hnpfK3RYBGvCR37-80" vertex="1" connectable="0">
                    <mxGeometry x="0.1793" y="-4" relative="1" as="geometry">
                        <mxPoint y="1" as="offset"/>
                    </mxGeometry>
                </mxCell>
                <mxCell id="zVIB7hnpfK3RYBGvCR37-83" style="edgeStyle=orthogonalEdgeStyle;rounded=0;orthogonalLoop=1;jettySize=auto;html=1;exitX=1;exitY=0.75;exitDx=0;exitDy=0;entryX=-0.006;entryY=0.645;entryDx=0;entryDy=0;entryPerimeter=0;" parent="1" source="zVIB7hnpfK3RYBGvCR37-79" target="zVIB7hnpfK3RYBGvCR37-57" edge="1">
                    <mxGeometry relative="1" as="geometry"/>
                </mxCell>
                <mxCell id="zVIB7hnpfK3RYBGvCR37-84" value="&lt;font style=&quot;line-height: 160%;&quot;&gt;Query&lt;/font&gt;" style="edgeLabel;html=1;align=center;verticalAlign=middle;resizable=0;points=[];fontSize=14;" parent="zVIB7hnpfK3RYBGvCR37-83" vertex="1" connectable="0">
                    <mxGeometry x="0.1591" y="1" relative="1" as="geometry">
                        <mxPoint x="-26" as="offset"/>
                    </mxGeometry>
                </mxCell>
                <mxCell id="zVIB7hnpfK3RYBGvCR37-88" style="edgeStyle=orthogonalEdgeStyle;rounded=0;orthogonalLoop=1;jettySize=auto;html=1;exitX=0.75;exitY=0;exitDx=0;exitDy=0;entryX=0.683;entryY=1;entryDx=0;entryDy=0;entryPerimeter=0;" parent="1" source="zVIB7hnpfK3RYBGvCR37-79" target="zVIB7hnpfK3RYBGvCR37-77" edge="1">
                    <mxGeometry relative="1" as="geometry"/>
                </mxCell>
                <mxCell id="zVIB7hnpfK3RYBGvCR37-89" value="&lt;font style=&quot;font-size: 14px; line-height: 150%;&quot;&gt;Response Api&lt;/font&gt;" style="edgeLabel;html=1;align=center;verticalAlign=middle;resizable=0;points=[];" parent="zVIB7hnpfK3RYBGvCR37-88" vertex="1" connectable="0">
                    <mxGeometry x="0.0078" y="-1" relative="1" as="geometry">
                        <mxPoint as="offset"/>
                    </mxGeometry>
                </mxCell>
                <mxCell id="zVIB7hnpfK3RYBGvCR37-95" style="edgeStyle=orthogonalEdgeStyle;rounded=0;orthogonalLoop=1;jettySize=auto;html=1;" parent="1" source="zVIB7hnpfK3RYBGvCR37-92" edge="1">
                    <mxGeometry relative="1" as="geometry">
                        <mxPoint x="-345" y="510" as="targetPoint"/>
                    </mxGeometry>
                </mxCell>
                <mxCell id="zVIB7hnpfK3RYBGvCR37-96" value="Check Session" style="edgeLabel;html=1;align=center;verticalAlign=middle;resizable=0;points=[];fontSize=14;" parent="zVIB7hnpfK3RYBGvCR37-95" vertex="1" connectable="0">
                    <mxGeometry x="-0.0992" y="-2" relative="1" as="geometry">
                        <mxPoint y="1" as="offset"/>
                    </mxGeometry>
                </mxCell>
                <mxCell id="zVIB7hnpfK3RYBGvCR37-106" style="edgeStyle=orthogonalEdgeStyle;rounded=0;orthogonalLoop=1;jettySize=auto;html=1;exitX=0;exitY=0.25;exitDx=0;exitDy=0;entryX=0;entryY=0.75;entryDx=0;entryDy=0;" parent="1" source="zVIB7hnpfK3RYBGvCR37-92" target="zVIB7hnpfK3RYBGvCR37-77" edge="1">
                    <mxGeometry relative="1" as="geometry">
                        <Array as="points">
                            <mxPoint x="-650" y="608"/>
                            <mxPoint x="-650" y="-197"/>
                        </Array>
                    </mxGeometry>
                </mxCell>
                <mxCell id="zVIB7hnpfK3RYBGvCR37-107" value="&lt;font style=&quot;font-size: 14px;&quot;&gt;Response Api&lt;/font&gt;" style="edgeLabel;html=1;align=center;verticalAlign=middle;resizable=0;points=[];" parent="zVIB7hnpfK3RYBGvCR37-106" vertex="1" connectable="0">
                    <mxGeometry x="0.4075" y="2" relative="1" as="geometry">
                        <mxPoint as="offset"/>
                    </mxGeometry>
                </mxCell>
                <mxCell id="zVIB7hnpfK3RYBGvCR37-92" value="&lt;div style=&quot;line-height: 170%;&quot;&gt;&lt;font style=&quot;line-height: 170%; font-size: 16px;&quot;&gt;TASK API&lt;/font&gt;&lt;div&gt;&lt;ul&gt;&lt;li&gt;&lt;font style=&quot;line-height: 170%; font-size: 16px;&quot;&gt;&#39;/task&#39; (get-all, create)&lt;/font&gt;&lt;/li&gt;&lt;li&gt;&lt;font style=&quot;line-height: 170%; font-size: 16px;&quot;&gt;&#39;/task/:id&#39; (get, update, delete)&lt;/font&gt;&lt;/li&gt;&lt;/ul&gt;&lt;/div&gt;&lt;/div&gt;" style="rounded=1;whiteSpace=wrap;html=1;align=left;spacingLeft=15;spacingRight=15;" parent="1" vertex="1">
                    <mxGeometry x="-480" y="570" width="270" height="150" as="geometry"/>
                </mxCell>
                <mxCell id="zVIB7hnpfK3RYBGvCR37-102" style="edgeStyle=orthogonalEdgeStyle;rounded=0;orthogonalLoop=1;jettySize=auto;html=1;entryX=0.25;entryY=1;entryDx=0;entryDy=0;" parent="1" source="zVIB7hnpfK3RYBGvCR37-98" target="zVIB7hnpfK3RYBGvCR37-57" edge="1">
                    <mxGeometry relative="1" as="geometry"/>
                </mxCell>
                <mxCell id="zVIB7hnpfK3RYBGvCR37-103" value="Query" style="edgeLabel;html=1;align=center;verticalAlign=middle;resizable=0;points=[];spacingLeft=0;fontSize=14;" parent="zVIB7hnpfK3RYBGvCR37-102" vertex="1" connectable="0">
                    <mxGeometry x="0.0286" y="-1" relative="1" as="geometry">
                        <mxPoint as="offset"/>
                    </mxGeometry>
                </mxCell>
                <mxCell id="zVIB7hnpfK3RYBGvCR37-98" value="JWT Token Validation" style="rounded=1;whiteSpace=wrap;html=1;align=center;spacingLeft=15;spacingRight=15;" parent="1" vertex="1">
                    <mxGeometry x="10" y="340" width="210" height="57.6" as="geometry"/>
                </mxCell>
                <mxCell id="ZCjlIfDEYyx5S1twePUe-1" value="DEVELOPMENT MODE" style="shape=ext;double=1;rounded=1;whiteSpace=wrap;html=1;align=left;verticalAlign=top;spacingTop=12;spacingLeft=20;" parent="1" vertex="1">
                    <mxGeometry x="20" y="-670" width="590" height="280" as="geometry"/>
                </mxCell>
                <mxCell id="ZCjlIfDEYyx5S1twePUe-2" value="Docker Container" style="swimlane;horizontal=0;whiteSpace=wrap;html=1;" parent="1" vertex="1">
                    <mxGeometry x="70" y="-620" width="460" height="200" as="geometry"/>
                </mxCell>
                <mxCell id="ZCjlIfDEYyx5S1twePUe-3" value="APPLICATION" style="shape=ext;double=1;rounded=1;whiteSpace=wrap;html=1;" parent="ZCjlIfDEYyx5S1twePUe-2" vertex="1">
                    <mxGeometry x="40" y="10" width="150" height="170" as="geometry"/>
                </mxCell>
                <mxCell id="ZCjlIfDEYyx5S1twePUe-4" style="edgeStyle=orthogonalEdgeStyle;rounded=0;orthogonalLoop=1;jettySize=auto;html=1;exitX=0;exitY=0.5;exitDx=0;exitDy=0;entryX=1;entryY=0.5;entryDx=0;entryDy=0;" parent="1" source="ZCjlIfDEYyx5S1twePUe-5" target="ZCjlIfDEYyx5S1twePUe-3" edge="1">
                    <mxGeometry relative="1" as="geometry"/>
                </mxCell>
                <mxCell id="ZCjlIfDEYyx5S1twePUe-5" value="REDIS" style="shape=ext;double=1;rounded=1;whiteSpace=wrap;html=1;" parent="1" vertex="1">
                    <mxGeometry x="290" y="-610" width="220" height="80" as="geometry"/>
                </mxCell>
                <mxCell id="ZCjlIfDEYyx5S1twePUe-6" value="MONGODB" style="shape=ext;double=1;rounded=1;whiteSpace=wrap;html=1;" parent="1" vertex="1">
                    <mxGeometry x="290" y="-520" width="220" height="80" as="geometry"/>
                </mxCell>
                <mxCell id="ZCjlIfDEYyx5S1twePUe-7" value="PRODUCTION MODE" style="shape=ext;double=1;rounded=1;whiteSpace=wrap;html=1;align=left;verticalAlign=top;spacingTop=12;spacingLeft=20;" parent="1" vertex="1">
                    <mxGeometry x="-690" y="-670" width="590" height="280" as="geometry"/>
                </mxCell>
                <mxCell id="ZCjlIfDEYyx5S1twePUe-8" value="Docker Container" style="swimlane;horizontal=0;whiteSpace=wrap;html=1;" parent="1" vertex="1">
                    <mxGeometry x="-640" y="-620" width="210" height="200" as="geometry"/>
                </mxCell>
                <mxCell id="ZCjlIfDEYyx5S1twePUe-9" value="APPLICATION" style="shape=ext;double=1;rounded=1;whiteSpace=wrap;html=1;" parent="ZCjlIfDEYyx5S1twePUe-8" vertex="1">
                    <mxGeometry x="40" y="10" width="150" height="170" as="geometry"/>
                </mxCell>
                <mxCell id="ZCjlIfDEYyx5S1twePUe-10" style="edgeStyle=orthogonalEdgeStyle;rounded=0;orthogonalLoop=1;jettySize=auto;html=1;entryX=1;entryY=0.25;entryDx=0;entryDy=0;" parent="1" source="ZCjlIfDEYyx5S1twePUe-11" target="ZCjlIfDEYyx5S1twePUe-8" edge="1">
                    <mxGeometry relative="1" as="geometry"/>
                </mxCell>
                <mxCell id="ZCjlIfDEYyx5S1twePUe-11" value="REDIS" style="shape=ext;double=1;rounded=1;whiteSpace=wrap;html=1;" parent="1" vertex="1">
                    <mxGeometry x="-365" y="-605" width="220" height="80" as="geometry"/>
                </mxCell>
                <mxCell id="ZCjlIfDEYyx5S1twePUe-12" style="edgeStyle=orthogonalEdgeStyle;rounded=0;orthogonalLoop=1;jettySize=auto;html=1;entryX=1;entryY=0.75;entryDx=0;entryDy=0;" parent="1" source="ZCjlIfDEYyx5S1twePUe-13" target="ZCjlIfDEYyx5S1twePUe-8" edge="1">
                    <mxGeometry relative="1" as="geometry"/>
                </mxCell>
                <mxCell id="ZCjlIfDEYyx5S1twePUe-13" value="MONGODB" style="shape=ext;double=1;rounded=1;whiteSpace=wrap;html=1;" parent="1" vertex="1">
                    <mxGeometry x="-365" y="-515" width="220" height="80" as="geometry"/>
                </mxCell>
                <mxCell id="ZCjlIfDEYyx5S1twePUe-14" value="Cloud Service" style="swimlane;whiteSpace=wrap;html=1;" parent="1" vertex="1">
                    <mxGeometry x="-380" y="-640" width="250" height="220" as="geometry"/>
                </mxCell>
                <mxCell id="ZCjlIfDEYyx5S1twePUe-15" style="edgeStyle=orthogonalEdgeStyle;rounded=0;orthogonalLoop=1;jettySize=auto;html=1;entryX=0.979;entryY=0.612;entryDx=0;entryDy=0;entryPerimeter=0;" parent="1" source="ZCjlIfDEYyx5S1twePUe-6" target="ZCjlIfDEYyx5S1twePUe-3" edge="1">
                    <mxGeometry relative="1" as="geometry"/>
                </mxCell>
            </root>
        </mxGraphModel>
    </diagram>
    <diagram id="po0o2q0K8-M99bp67vuF" name="Page-2">
        <mxGraphModel dx="2468" dy="1953" grid="1" gridSize="10" guides="1" tooltips="1" connect="1" arrows="1" fold="1" page="1" pageScale="1" pageWidth="850" pageHeight="1100" math="0" shadow="0">
            <root>
                <mxCell id="0"/>
                <mxCell id="1" parent="0"/>
            </root>
        </mxGraphModel>
    </diagram>
</mxfile>
